<svg width="33" height="33" viewBox="0 0 33 33" fill="none" xmlns="http://www.w3.org/2000/svg">
<path d="M1.87868 26.8787C0.707107 28.0503 0.707107 29.9497 1.87868 31.1213C3.05025 32.2929 4.94975 32.2929 6.12132 31.1213L1.87868 26.8787ZM33 3C33 1.34315 31.6569 -1.88966e-08 30 5.71159e-07L3 -1.11471e-06C1.34315 -1.11471e-06 1.14844e-06 1.34314 1.14844e-06 3C1.82279e-06 4.65685 1.34315 6 3 6H27V30C27 31.6569 28.3431 33 30 33C31.6569 33 33 31.6569 33 30L33 3ZM6.12132 31.1213L32.1213 5.12132L27.8787 0.878679L1.87868 26.8787L6.12132 31.1213Z" fill="#FF5DC8"/>
</svg>
