<svg width="34" height="57" viewBox="0 0 34 57" fill="none" xmlns="http://www.w3.org/2000/svg">
<g id="Group">
<g id="Group_2">
<path id="Vector" d="M19.0519 1.07697C-11.5639 2.33505 7.49564 55.4908 16.1892 55.4531C19.7977 55.4381 50.7675 -0.218781 19.0519 1.07697ZM23.7753 17.997C23.361 22.5999 20.4832 26.103 17.3569 25.8242C14.223 25.538 12.0232 21.5754 12.4451 16.9649C12.8594 12.362 15.7372 8.85898 18.8636 9.13771C18.954 9.14525 19.0444 9.16032 19.1272 9.16785C21.2441 9.51439 22.9015 11.5559 23.5418 14.3132C23.7979 15.4432 23.8959 16.6937 23.7753 17.997Z" fill="#FF5DC8"/>
</g>
<g id="Group_3">
<path id="Vector_2" d="M23.9264 19.3051C22.5402 24.0813 18.6455 27.1474 15.2404 26.1455C11.8428 25.1285 10.193 20.4201 11.5791 15.6364C12.792 11.4855 15.8882 8.6303 18.9167 8.61523C19.3687 8.61523 19.8282 8.6755 20.2727 8.80357C23.6778 9.82058 25.3201 14.5214 23.9264 19.3051Z" stroke="#135DBB" stroke-width="2" stroke-miterlimit="10"/>
</g>
<path id="Vector_3" d="M16.1892 55.4521C20.8599 55.4521 45.3209 -0.189658 19.0519 1.07596C-15.2402 2.72577 8.45239 55.4596 16.1892 55.4521Z" stroke="#135DBB" stroke-width="2" stroke-miterlimit="10"/>
<path id="Vector_4" d="M4.6709 55.6191H27.354" stroke="#135DBB" stroke-width="2" stroke-miterlimit="10"/>
</g>
</svg>
