<svg width="104" height="100" viewBox="0 0 104 100" fill="none" xmlns="http://www.w3.org/2000/svg">
<path d="M61.9673 99.2258H61.9573L22.5473 98.1358C22.2773 98.1258 22.0573 97.9058 22.0573 97.6358V66.2458C22.0573 66.1058 22.1173 65.9758 22.2073 65.8858C22.3073 65.7958 22.4373 65.7358 22.5673 65.7458L60.9973 67.0558C61.2573 67.0658 61.4673 67.2758 61.4772 67.5358L62.4673 98.7058C62.4673 98.8458 62.4173 98.9758 62.3173 99.0758C62.2273 99.1758 62.0973 99.2258 61.9673 99.2258ZM23.0573 97.1458L61.4573 98.2158L60.4973 68.0358L23.0573 66.7558V97.1458Z" fill="#135DBB"/>
<path d="M60.9772 66.0558L22.5472 65.4958C22.4072 65.4958 22.2672 65.4358 22.1772 65.3258L14.5072 56.5458C14.3772 56.3958 14.3472 56.1858 14.4272 56.0058C14.5072 55.8258 14.6672 55.7058 14.8972 55.7158L53.8672 56.9158C54.0072 56.9158 54.1372 56.9858 54.2272 57.0858L61.3572 65.2358C61.4872 65.3858 61.5172 65.5958 61.4372 65.7758C61.3472 65.9358 61.1772 66.0558 60.9772 66.0558ZM22.7872 64.4958L59.8672 65.0358L53.6172 57.8958L16.0172 56.7358L22.7872 64.4958Z" fill="#135DBB"/>
<path d="M62.6372 67.0558C62.4572 67.0558 62.2972 66.9658 62.2072 66.8058C62.1072 66.6358 62.1172 66.4358 62.2272 66.2758L68.6672 56.6758C68.7572 56.5358 68.9372 56.4658 69.0872 56.4558L89.4172 56.8358C89.6172 56.8358 89.7972 56.9658 89.8772 57.1558C89.9472 57.3458 89.8972 57.5558 89.7572 57.6958L81.6972 65.3458C81.6172 65.4258 81.5072 65.4758 81.3972 65.4858L62.6872 67.0558C62.6672 67.0558 62.6472 67.0558 62.6372 67.0558ZM69.3372 57.4558L63.6272 65.9658L81.1272 64.4958L88.1772 57.8058L69.3372 57.4558Z" fill="#135DBB"/>
<path d="M63.3172 99.1059C63.1872 99.1059 63.0672 99.0559 62.9772 98.9759C62.8772 98.8859 62.8172 98.7559 62.8172 98.6259L62.1372 68.1659C62.1272 67.9059 62.3272 67.6859 62.5872 67.6559L81.2872 65.7559C81.4272 65.7459 81.5672 65.7859 81.6672 65.8759C81.7672 65.9659 81.8372 66.0959 81.8372 66.2359L82.5872 97.6259C82.5972 97.8959 82.3872 98.1259 82.1172 98.1359L63.3572 99.1059C63.3372 99.1059 63.3272 99.1059 63.3172 99.1059ZM63.1472 68.5959L63.8072 98.0859L81.5672 97.1659L80.8472 66.7959L63.1472 68.5959Z" fill="#135DBB"/>
<path d="M48.4372 51.1958C45.7372 51.1958 42.6172 48.5858 41.0472 45.9058C39.8872 43.9158 39.6972 42.1158 40.5272 40.9758C41.6172 39.4658 43.1072 38.9358 44.8572 39.4158C46.2972 39.8158 47.6872 40.8858 48.6172 41.9658C48.6172 41.9558 48.6272 41.9458 48.6272 41.9358C49.5672 39.5058 51.4772 38.0458 53.7472 38.0058C55.0272 37.9858 55.8472 38.9358 55.9572 40.6058C56.1872 44.3558 53.0472 50.7158 48.8772 51.1758C48.7372 51.1858 48.5872 51.1958 48.4372 51.1958ZM43.6772 40.2358C42.7572 40.2358 41.9772 40.6758 41.3472 41.5558C40.7672 42.3558 40.9872 43.7958 41.9172 45.3958C43.3772 47.8958 46.4172 50.4458 48.7672 50.1758C52.2472 49.7958 55.1672 43.9658 54.9672 40.6658C54.8972 39.5558 54.5072 38.9958 53.7972 38.9958C53.7872 38.9958 53.7872 38.9958 53.7772 38.9958C51.8972 39.0258 50.7672 40.1758 50.1472 41.1458C49.7472 41.7758 49.4972 42.4158 49.3572 42.9458C49.6072 43.3558 49.7572 43.7358 49.7772 44.0258C49.8072 44.4358 49.6372 44.7758 49.3072 44.9258C49.0272 45.0558 48.7372 45.0158 48.5272 44.8158C48.1772 44.4858 48.1772 43.8058 48.2972 43.1358C47.6672 42.2658 46.4972 41.0958 45.0872 40.5358C44.5872 40.3358 44.1172 40.2358 43.6772 40.2358Z" fill="#135DBB"/>
<path d="M45.0471 15.3859C44.8671 15.3859 44.6971 15.3659 44.5271 15.3159C43.0871 14.9359 42.4371 13.2159 42.7671 11.8959C42.9671 11.0859 43.5571 10.3359 44.3171 9.92586C44.9471 9.58586 45.6271 9.50586 46.2271 9.71586C47.4671 10.1459 48.0071 11.6259 47.8171 12.7959C47.6771 13.6459 47.1371 14.4659 46.3971 14.9459C45.9671 15.2459 45.4971 15.3859 45.0471 15.3859ZM45.5171 10.6159C45.2771 10.6159 45.0271 10.6859 44.7771 10.8159C44.2571 11.0959 43.8571 11.6059 43.7271 12.1459C43.5171 12.9859 43.9371 14.1359 44.7771 14.3559C45.2071 14.4659 45.5971 14.2959 45.8471 14.1259C46.3471 13.7959 46.7371 13.2159 46.8271 12.6459C46.9471 11.8859 46.5971 10.9159 45.8871 10.6659C45.7771 10.6359 45.6471 10.6159 45.5171 10.6159Z" fill="#135DBB"/>
<path d="M51.3172 8.80588C50.8572 8.80588 50.3772 8.69587 49.9172 8.47587C49.0072 8.04587 48.3772 7.29587 48.2072 6.45587C47.9972 5.36587 48.6172 4.38588 49.2172 3.87588C49.8772 3.31588 50.8272 3.02588 51.7272 3.10588C52.4872 3.18588 53.1572 3.52588 53.5872 4.08588C54.0772 4.70588 54.2572 5.55588 54.0772 6.41588C53.8872 7.31588 53.3272 8.09587 52.5872 8.49587C52.2072 8.69587 51.7672 8.80588 51.3172 8.80588ZM49.8772 4.63587C49.4472 4.99587 49.0772 5.64588 49.1972 6.26588C49.2972 6.78588 49.7372 7.28588 50.3572 7.57588C50.9772 7.86588 51.6272 7.88587 52.1272 7.61587C52.6072 7.35587 52.9872 6.82588 53.1172 6.21588C53.2372 5.65588 53.1272 5.10587 52.8172 4.71587C52.4772 4.27587 51.9872 4.14588 51.6372 4.11588C51.0072 4.03588 50.3272 4.24587 49.8772 4.63587Z" fill="#135DBB"/>
<path d="M41.5872 4.08584C41.2372 4.08584 40.8772 4.00584 40.5572 3.85584C40.0372 3.61584 39.6672 3.21584 39.5372 2.74584C39.2572 1.75584 40.0572 0.875844 40.5772 0.515844C41.3972 -0.0541561 42.6472 -0.244156 43.3272 0.425844C43.7172 0.815844 43.8772 1.45584 43.7472 2.15584C43.5972 2.96584 43.1272 3.61584 42.4772 3.90584C42.1972 4.02584 41.8972 4.08584 41.5872 4.08584ZM41.1372 1.33584C40.7972 1.57584 40.3772 2.08584 40.4872 2.47584C40.5372 2.66584 40.7172 2.84584 40.9672 2.95584C41.3172 3.11584 41.7372 3.13584 42.0472 2.99584C42.4572 2.80584 42.6772 2.34584 42.7472 1.97584C42.8072 1.62584 42.7572 1.28584 42.6072 1.13584C42.3572 0.895843 41.6372 0.985844 41.1372 1.33584Z" fill="#135DBB"/>
<path d="M72.8772 53.8158C72.7272 53.8158 72.5772 53.7458 72.4772 53.6158C72.3072 53.3958 72.3572 53.0858 72.5772 52.9158L102.917 30.2958C103.137 30.1258 103.447 30.1758 103.617 30.3958C103.787 30.6158 103.737 30.9258 103.517 31.0958L73.1772 53.7158C73.0872 53.7858 72.9872 53.8158 72.8772 53.8158Z" fill="#135DBB"/>
<path d="M58.2272 50.7959C58.2172 50.7959 58.2072 50.7959 58.1872 50.7959C57.9072 50.7759 57.7072 50.5359 57.7272 50.2659L60.4472 12.9459C60.4672 12.6659 60.7172 12.4659 60.9772 12.4859C61.2572 12.5059 61.4572 12.7459 61.4372 13.0159L58.7172 50.3359C58.7072 50.5959 58.4872 50.7959 58.2272 50.7959Z" fill="#135DBB"/>
<path d="M29.7972 54.2858C29.7172 54.2858 29.6372 54.2658 29.5572 54.2258L1.06718 38.9358C0.827177 38.8058 0.737177 38.5058 0.867177 38.2558C0.997177 38.0158 1.29718 37.9158 1.54718 38.0558L30.0372 53.3458C30.2772 53.4758 30.3672 53.7758 30.2372 54.0258C30.1472 54.1858 29.9772 54.2858 29.7972 54.2858Z" fill="#135DBB"/>
<path d="M75.5572 22.2759C75.3272 22.2759 75.1172 22.1059 75.0672 21.8659L72.9872 11.0659C72.9372 10.7959 73.1172 10.5359 73.3872 10.4759C73.6572 10.4259 73.9172 10.6059 73.9772 10.8759L76.0572 21.6759C76.1072 21.9459 75.9272 22.2059 75.6572 22.2659C75.6172 22.2759 75.5872 22.2759 75.5572 22.2759Z" fill="#135DBB"/>
<path d="M68.7772 22.2758C68.6472 22.2758 68.5172 22.2258 68.4172 22.1158C68.2272 21.9158 68.2372 21.5958 68.4372 21.4058L79.7872 10.6058C79.9872 10.4158 80.3072 10.4258 80.4972 10.6258C80.6872 10.8258 80.6772 11.1458 80.4772 11.3358L69.1272 22.1358C69.0172 22.2358 68.8972 22.2758 68.7772 22.2758Z" fill="#135DBB"/>
<path d="M79.4572 19.2459C79.3772 19.2459 79.3072 19.2259 79.2372 19.1959L69.3872 14.2259C69.1372 14.1059 69.0372 13.8059 69.1672 13.5559C69.2872 13.3059 69.5872 13.2059 69.8372 13.3359L79.6872 18.3059C79.9372 18.4259 80.0372 18.7259 79.9072 18.9759C79.8172 19.1459 79.6372 19.2459 79.4572 19.2459Z" fill="#135DBB"/>
<path d="M69.7371 47.8159C69.4471 47.8159 69.1571 47.7459 68.8771 47.6159C68.3371 47.3459 67.9671 46.8559 67.8571 46.2659L66.0571 36.9559C65.8871 36.0759 66.3671 35.1859 67.1871 34.8359L74.1172 31.8859C74.6672 31.6459 75.2871 31.6859 75.8071 31.9859C76.3271 32.2859 76.6771 32.7959 76.7571 33.3959L78.0071 42.5459C78.1171 43.3659 77.6971 44.1659 76.9471 44.5259L70.5671 47.6259C70.3071 47.7459 70.0171 47.8159 69.7371 47.8159ZM74.8672 32.7259C74.7472 32.7259 74.6271 32.7459 74.5071 32.7959L67.5771 35.7459C67.1871 35.9159 66.9571 36.3359 67.0371 36.7559L68.8371 46.0659C68.8871 46.3459 69.0671 46.5859 69.3271 46.7059C69.5871 46.8359 69.8771 46.8359 70.1371 46.7059L76.5171 43.6059C76.8771 43.4359 77.0771 43.0559 77.0271 42.6559L75.7771 33.5059C75.7371 33.2259 75.5771 32.9759 75.3271 32.8359C75.1771 32.7659 75.0171 32.7259 74.8672 32.7259Z" fill="#135DBB"/>
<path d="M27.6072 41.8858C27.5772 41.8858 27.5472 41.8858 27.5172 41.8758C27.3772 41.8458 27.2572 41.7658 27.1872 41.6458L15.1172 22.3258C14.9772 22.0958 15.0372 21.7958 15.2672 21.6458L29.7072 12.1458C29.8272 12.0658 29.9772 12.0458 30.1172 12.0858C30.2572 12.1258 30.3672 12.2258 30.4372 12.3558L39.9872 32.3458C40.0872 32.5658 40.0272 32.8158 39.8372 32.9658L27.9272 41.7858C27.8272 41.8458 27.7172 41.8858 27.6072 41.8858ZM16.2172 22.2158L27.7472 40.6558L38.8972 32.4058L29.7672 13.3058L16.2172 22.2158Z" fill="#135DBB"/>
<path d="M27.3271 43.8258C27.1571 43.8258 27.0071 43.7458 26.9071 43.5958L15.4071 26.0058C15.3571 25.9358 15.3371 25.8558 15.3271 25.7758L15.0371 22.1058C15.0171 21.8358 15.2171 21.5858 15.4971 21.5658C15.7671 21.5458 16.0171 21.7458 16.0371 22.0258L16.3171 25.5658L27.0271 41.9458L27.1171 41.3058C27.1571 41.0358 27.4071 40.8358 27.6871 40.8858C27.9571 40.9258 28.1471 41.1758 28.1071 41.4558L27.8271 43.3958C27.7971 43.6058 27.6471 43.7658 27.4371 43.8158C27.3971 43.8258 27.3671 43.8258 27.3271 43.8258Z" fill="#135DBB"/>
<path d="M27.3271 43.8258C27.1671 43.8258 27.0171 43.7558 26.9171 43.6158C26.7571 43.3858 26.8071 43.0758 27.0371 42.9158L39.1371 34.2858L39.0271 32.5858C39.0071 32.3058 39.2171 32.0758 39.4971 32.0558C39.7771 32.0358 40.0071 32.2458 40.0271 32.5258L40.1571 34.5058C40.1671 34.6758 40.0871 34.8458 39.9471 34.9458L27.6171 43.7358C27.5271 43.7958 27.4271 43.8258 27.3271 43.8258Z" fill="#135DBB"/>
<path d="M4.74719 33.0558C3.68719 33.0558 2.52719 32.7158 1.63719 32.2158C0.517194 31.5958 -0.0728057 30.7558 0.00719425 29.9358C0.107194 28.8958 0.707194 28.1758 1.69719 27.9058C2.33719 27.7358 3.11719 27.7758 3.78719 27.9458C3.68719 26.6858 4.19719 25.6058 5.18719 25.0058C5.86719 24.5858 6.60719 24.8358 7.16719 25.6558C8.19719 27.1758 8.70719 31.0158 6.72719 32.4858C6.19719 32.8858 5.49719 33.0558 4.74719 33.0558ZM6.12719 31.6858C7.46719 30.6858 7.22719 27.5358 6.33719 26.2158C5.98719 25.6958 5.77719 25.8158 5.70719 25.8658C5.19719 26.1758 4.89719 26.6558 4.80719 27.2858C4.74719 27.6958 4.79719 28.0858 4.86719 28.3758C5.06719 28.4958 5.22719 28.6358 5.32719 28.7758C5.50719 29.0358 5.51719 29.3358 5.35719 29.5758C5.21719 29.7858 4.97719 29.8858 4.72719 29.8258C4.39719 29.7558 4.18719 29.4258 4.04719 29.0858C3.50719 28.8658 2.62719 28.6758 1.90719 28.8958C1.34719 29.0558 1.05719 29.4258 0.997194 30.0358C0.957194 30.4358 1.38719 30.9358 2.12719 31.3458C3.35719 32.0358 5.25719 32.3358 6.12719 31.6858Z" fill="#135DBB"/>
</svg>
