<svg width="123" height="100" viewBox="0 0 123 100" fill="none" xmlns="http://www.w3.org/2000/svg">
<path d="M33.3222 70.1342C33.0822 70.1342 32.8822 69.9642 32.8322 69.7342C32.7822 69.4742 32.9422 69.2242 33.1922 69.1542L45.5722 65.8142C45.7422 65.7742 45.9322 65.8142 46.0522 65.9442C46.1322 66.0242 46.1922 66.1542 46.2022 66.2742C46.4022 68.1742 42.0422 69.0642 33.3722 70.1342C33.3622 70.1342 33.3422 70.1342 33.3222 70.1342Z" fill="#135DBB"/>
<path d="M0.522226 73.6041C0.432226 73.6041 0.342216 73.5741 0.262216 73.5241C0.122216 73.4341 0.0322256 73.2842 0.0222256 73.1142C-0.217774 66.6742 1.50222 62.1342 4.39222 61.5542C6.70222 61.0742 9.27221 63.1641 11.4422 67.2641C11.5622 67.4941 11.4922 67.7842 11.2622 67.9241C7.74222 70.1142 4.20218 72.0041 0.722177 73.5541C0.662177 73.5941 0.592226 73.6041 0.522226 73.6041ZM5.04218 62.5041C4.89218 62.5041 4.74223 62.5242 4.59223 62.5542C2.34223 63.0042 0.932206 66.9041 1.00221 72.3441C4.08221 70.9341 7.22222 69.2541 10.3322 67.3341C8.63222 64.2541 6.70218 62.5041 5.04218 62.5041Z" fill="#135DBB"/>
<path d="M10.2321 93.8042C8.50212 93.8042 6.66211 92.4542 4.97211 89.9342C4.89211 89.8242 4.87217 89.6842 4.90217 89.5442C4.93217 89.4142 5.01215 89.2942 5.13215 89.2242C6.99215 88.0842 9.78216 86.8442 13.0222 85.4142L14.5122 84.7542C14.6722 84.6842 14.8621 84.7042 15.0021 84.8042C15.1421 84.9042 15.2222 85.0742 15.2122 85.2442C14.8822 90.1442 13.3021 93.2442 10.8821 93.7342C10.6621 93.7842 10.4421 93.8042 10.2321 93.8042ZM6.10212 89.8142C7.65212 91.9642 9.30213 93.0242 10.6721 92.7542C12.4321 92.3942 13.7321 89.8442 14.1321 86.0142L13.4221 86.3342C10.4721 87.6442 7.90212 88.7842 6.10212 89.8142Z" fill="#135DBB"/>
<path d="M98.1122 11.7042C97.9722 11.7042 97.8322 11.6442 97.7322 11.5342C94.8822 8.25422 92.6022 3.99422 93.9622 1.86422C95.5522 -0.635781 100.402 -0.605781 106.322 1.93422C106.472 2.00422 106.582 2.13422 106.612 2.29422C106.642 2.45422 106.592 2.62422 106.472 2.74422C106.292 2.92422 106.122 3.10422 105.942 3.29422C104.952 4.34422 104.042 5.46422 103.172 6.55422C101.652 8.44422 100.212 10.2342 98.4122 11.5942C98.3222 11.6742 98.2222 11.7042 98.1122 11.7042ZM98.4222 1.00422C96.6822 1.00422 95.4022 1.47422 94.8122 2.41422C93.9522 3.76422 95.4022 7.20422 98.1922 10.5242C99.7222 9.27422 101.032 7.65422 102.402 5.94422C103.292 4.83422 104.212 3.69422 105.232 2.62422C105.242 2.61422 105.252 2.60422 105.262 2.58422C102.642 1.53422 100.272 1.00422 98.4222 1.00422Z" fill="#135DBB"/>
<path d="M117.192 21.3041C115.752 21.3041 114.072 21.0241 112.202 20.4441C112.032 20.3941 111.902 20.2541 111.862 20.0841C111.822 19.9141 111.872 19.7341 111.992 19.6141L113.362 18.2441C115.762 15.8341 117.842 13.7541 119.522 12.4641C119.632 12.3841 119.772 12.3441 119.902 12.3641C120.032 12.3841 120.162 12.4541 120.232 12.5741C122.202 15.3641 122.702 17.8141 121.652 19.4641C120.892 20.6841 119.322 21.3041 117.192 21.3041ZM113.302 19.7241C117.022 20.7241 119.862 20.4341 120.812 18.9241C121.572 17.7341 121.162 15.8041 119.712 13.5841C118.162 14.8541 116.252 16.7641 114.072 18.9441L113.302 19.7241Z" fill="#135DBB"/>
<path d="M73.3022 19.1542C73.0822 19.1542 72.8822 19.0042 72.8222 18.7842C72.3822 17.1542 70.5523 11.6542 65.2823 9.42416C63.9423 8.85416 62.3522 8.51416 60.8022 8.44416C61.5622 11.2042 61.4522 14.0142 60.7322 15.9742C59.9622 18.0742 58.4922 19.1142 56.8022 18.7642C55.2322 18.4342 53.3522 17.2142 52.6822 15.2242C52.2622 13.9542 52.1922 11.9442 54.2922 9.56416C55.4422 8.25416 57.3323 7.60416 59.4023 7.46416C58.4923 5.10416 56.8722 2.91416 54.4322 1.57416C50.5722 -0.54584 43.1522 3.25416 37.1722 10.4042C36.9922 10.6142 36.6822 10.6442 36.4722 10.4642C36.2622 10.2842 36.2322 9.97416 36.4122 9.76416C42.8022 2.13416 50.5922 -1.67584 54.9222 0.70416C57.7722 2.26416 59.5522 4.78416 60.5022 7.44416C62.3022 7.47416 64.1422 7.85416 65.6822 8.50416C71.3722 10.9042 73.3322 16.7842 73.7922 18.5242C73.8622 18.7942 73.7022 19.0642 73.4422 19.1342C73.3922 19.1442 73.3422 19.1542 73.3022 19.1542ZM59.7422 8.44416C57.8122 8.52416 56.0522 9.08416 55.0522 10.2242C53.6422 11.8342 53.1522 13.4542 53.6422 14.9142C54.1822 16.5242 55.7722 17.5342 57.0122 17.7942C58.6222 18.1342 59.4522 16.5842 59.8022 15.6442C60.4922 13.7442 60.5222 11.0542 59.7422 8.44416Z" fill="#135DBB"/>
<path d="M5.38217 90.1541C5.22217 90.1541 5.06219 90.0741 4.96219 89.9341C3.09219 87.1641 1.59215 83.2841 0.732148 79.0341C0.332148 77.0341 0.0821771 75.0441 0.0121771 73.1241C0.00217712 72.9241 0.122165 72.7341 0.312165 72.6441C3.74217 71.1141 7.25215 69.2341 10.7321 67.0741C15.1621 64.3241 18.9422 61.5141 22.4322 58.8841L22.7221 58.6641C28.1521 54.5841 31.4321 52.1241 33.1721 53.6941C33.7021 54.1641 33.9722 54.7541 33.9922 55.4341C34.0422 57.6641 31.2822 60.4041 28.8422 62.8141C27.7222 63.9241 26.1922 65.4441 26.1822 65.8841C26.6622 66.2841 30.7522 65.7241 33.7422 65.3241C41.0522 64.3341 45.8722 63.8641 46.2022 66.2141C46.2322 66.4641 46.0822 66.7041 45.8422 66.7641L40.2422 68.2741C42.8522 67.9741 44.3322 67.9941 44.8922 68.3941C45.1222 68.5641 45.1922 68.7641 45.2122 68.9041C45.3722 70.0141 43.8322 71.0141 41.0922 72.1141C42.0022 72.0741 42.5321 72.2941 42.7221 72.8041C42.9121 73.3241 42.8921 73.8341 42.6621 74.3041C41.8821 75.8741 38.7421 76.8441 33.9821 78.3041C29.7521 79.6041 24.4822 81.2141 18.9022 83.8441C17.5422 84.4841 16.2022 85.0841 14.9322 85.6541L13.4422 86.3141C10.2422 87.7341 7.47215 88.9641 5.67215 90.0641C5.56215 90.1341 5.47217 90.1541 5.38217 90.1541ZM1.0322 73.4241C1.1122 75.1841 1.35214 77.0041 1.72214 78.8341C2.51214 82.7641 3.85215 86.3441 5.54215 88.9841C7.39215 87.9141 10.0122 86.7541 13.0122 85.4241L14.5022 84.7641C15.7722 84.1941 17.0922 83.5941 18.4522 82.9541C24.0922 80.2941 29.4021 78.6641 33.6621 77.3541C37.8421 76.0741 41.1522 75.0641 41.7422 73.8741C41.8522 73.6541 41.8522 73.4341 41.7622 73.1641C41.0722 72.6341 35.5321 74.5241 33.1621 75.3341C29.9521 76.4241 29.4922 76.5441 29.1422 76.3541C29.0222 76.2841 28.9122 76.1441 28.8722 76.0141C28.6822 75.2641 29.4322 74.9641 34.2022 73.4441C36.9022 72.5841 43.9222 70.3441 44.2022 69.1841C43.0322 68.7241 35.9222 69.8941 32.4622 70.4741L31.7022 70.6041C27.5022 71.3041 27.3422 71.2841 27.0622 71.0541C26.9522 70.9541 26.8722 70.8041 26.8722 70.6541C26.8722 69.9841 27.2621 69.8841 32.8521 69.2041L33.2622 69.1541L44.9622 65.9941C43.6522 65.0241 37.6322 65.8341 33.8822 66.3441C28.1222 67.1241 25.8922 67.3241 25.3122 66.3541C24.8022 65.5041 25.8722 64.3841 28.1522 62.1341C30.2122 60.0941 33.0422 57.2941 33.0022 55.4941C32.9922 55.0941 32.8322 54.7541 32.5122 54.4641C31.3822 53.4441 27.8322 56.1141 23.3322 59.4841L23.0421 59.7041C19.5321 62.3541 15.7322 65.1741 11.2622 67.9541C7.85218 70.0541 4.4122 71.9041 1.0322 73.4241Z" fill="#135DBB"/>
<path d="M27.5422 71.1842C27.2522 71.1842 27.1622 71.1242 27.0622 71.0442C26.9522 70.9442 26.8722 70.7942 26.8722 70.6442C26.8722 69.9742 27.2622 69.8742 32.8522 69.1942L33.2622 69.1442C33.5222 69.1142 33.7622 69.2842 33.8122 69.5442C33.8622 69.8042 33.7022 70.0542 33.4522 70.1242L31.7422 70.5842C29.0922 71.0242 28.0322 71.1842 27.5422 71.1842Z" fill="#135DBB"/>
<path d="M27.4022 66.9942C26.2022 66.9942 25.5722 66.7942 25.3022 66.3442C24.7922 65.4942 25.8622 64.3742 28.1422 62.1242C30.2022 60.0842 33.0322 57.2842 32.9922 55.4842C32.9822 55.0842 32.8222 54.7442 32.5022 54.4542C31.3722 53.4342 27.8222 56.1042 23.3222 59.4742L23.0322 59.6942C22.8922 59.7942 22.7222 59.8242 22.5622 59.7642C22.4022 59.7042 22.2822 59.5742 22.2422 59.4142L17.1022 37.9142C17.0422 37.6542 17.1922 37.4042 17.4422 37.3242L56.8622 24.9842C56.9922 24.9442 57.1322 24.9542 57.2422 25.0242C57.3622 25.0842 57.4522 25.1942 57.4822 25.3242L67.8022 60.3242C67.8422 60.4542 67.8222 60.5942 67.7622 60.7142C67.6922 60.8342 67.5822 60.9142 67.4522 60.9542L45.8122 66.8042C45.6722 66.8442 45.5222 66.8142 45.4022 66.7342C45.2822 66.6542 45.2022 66.5242 45.1822 66.3842C44.9722 64.8442 38.0122 65.7842 33.8522 66.3542C30.8222 66.7442 28.7522 66.9942 27.4022 66.9942ZM31.8922 53.2242C32.3922 53.2242 32.8222 53.3742 33.1822 53.7042C33.7122 54.1742 33.9822 54.7642 34.0022 55.4442C34.0522 57.6742 31.2922 60.4142 28.8522 62.8242C27.7322 63.9342 26.2022 65.4542 26.1822 65.8942C26.6622 66.2942 30.7522 65.7342 33.7422 65.3342C40.4422 64.4242 45.0422 63.9542 46.0222 65.6842L66.7222 60.0942L56.6922 26.0742L18.2022 38.1242L23.0522 58.4242C27.1822 55.3342 30.0322 53.2242 31.8922 53.2242Z" fill="#135DBB"/>
<path d="M65.3522 99.2342C55.6422 99.2342 47.7522 91.3342 47.7522 81.6342C47.7522 71.9342 55.6522 64.0342 65.3522 64.0342C75.0522 64.0342 82.9522 71.9342 82.9522 81.6342C82.9522 91.3342 75.0522 99.2342 65.3522 99.2342ZM65.3522 65.0342C56.2022 65.0342 48.7522 72.4842 48.7522 81.6342C48.7522 90.7842 56.2022 98.2342 65.3522 98.2342C74.5022 98.2342 81.9522 90.7842 81.9522 81.6342C81.9522 72.4842 74.5022 65.0342 65.3522 65.0342Z" fill="#135DBB"/>
<path d="M86.9122 85.9142C86.8522 85.9142 86.7922 85.9042 86.7322 85.8842C86.5122 85.8042 86.3822 85.5742 86.4122 85.3442L88.0122 74.3242L82.0522 69.4342C81.8922 69.3042 81.8222 69.0742 81.9022 68.8742C81.9722 68.6742 82.2022 68.5442 82.3822 68.5442L87.6322 68.6042L85.2722 59.4742C85.2122 59.2642 85.3122 59.0342 85.5022 58.9242C85.6922 58.8142 85.9322 58.8342 86.0922 58.9842L92.6222 64.9542L97.5222 57.7042C97.6422 57.5242 97.8622 57.4442 98.0622 57.5042C98.2722 57.5642 98.4122 57.7442 98.4322 57.9542L98.9822 66.0942L106.142 62.6242C106.342 62.5242 106.592 62.5742 106.742 62.7542C106.892 62.9242 106.902 63.1842 106.772 63.3642L101.832 70.3242L106.382 76.2642C106.522 76.4442 106.522 76.6942 106.382 76.8742C106.242 77.0542 105.992 77.1142 105.792 77.0242L99.0922 74.1042L102.202 79.7742C102.312 79.9742 102.272 80.2142 102.112 80.3742C101.952 80.5342 101.702 80.5642 101.512 80.4442L93.8122 75.8542L87.3422 85.6842C87.2422 85.8242 87.0822 85.9142 86.9122 85.9142ZM83.7922 69.5642L88.8722 73.7342C89.0122 73.8442 89.0722 74.0242 89.0522 74.1942L87.7322 83.2642L93.2222 74.9142C93.3722 74.6942 93.6622 74.6242 93.8922 74.7642L100.432 78.6642L97.5022 73.3142C97.4022 73.1242 97.4322 72.8942 97.5722 72.7342C97.7122 72.5742 97.9422 72.5242 98.1422 72.6142L104.412 75.3442L100.812 70.6442C100.682 70.4742 100.672 70.2242 100.802 70.0542L104.832 64.3842L98.7522 67.3242C98.6022 67.3942 98.4222 67.3842 98.2822 67.3042C98.1422 67.2242 98.0422 67.0742 98.0322 66.9042L97.5322 59.4742L93.1222 65.9942C93.0422 66.1142 92.9122 66.1942 92.7622 66.2142C92.6222 66.2342 92.4722 66.1842 92.3622 66.0842L86.6522 60.8542L88.7522 68.9842C88.7922 69.1342 88.7622 69.2942 88.6622 69.4142C88.5622 69.5342 88.4222 69.5842 88.2622 69.6042L83.7922 69.5642Z" fill="#135DBB"/>
<path d="M88.8322 37.3742C88.8022 37.3742 88.7722 37.3742 88.7422 37.3742C88.0422 37.3542 87.4822 37.1442 87.1022 36.7342C86.8922 36.5042 86.7922 36.2142 86.8422 35.9042C86.8822 35.6442 87.0222 35.3842 87.2422 35.1142C86.2822 35.6242 85.3422 36.0842 84.4922 36.4242C82.9822 37.0242 81.9722 37.1542 81.3122 36.8442C81.0422 36.7142 80.8822 36.4942 80.8422 36.2142C80.7722 35.6842 81.2222 35.0642 82.3722 34.0842C82.3422 34.1042 82.3122 34.1142 82.2722 34.1342C78.3522 36.2142 77.1822 36.1342 76.5922 35.8342C76.0422 35.5542 75.9022 35.1442 75.8922 34.8642C75.8422 33.9342 76.9522 32.8342 79.8622 30.9242C80.7322 30.3442 81.6822 29.7542 82.6122 29.1642C84.6522 27.8842 87.7422 25.9442 87.8422 25.2942C87.5222 25.0142 84.8822 25.6542 83.6222 25.9642C81.1922 26.5542 80.1022 26.7942 79.6722 26.1642C79.4622 25.8542 79.5222 25.4542 79.8622 24.9942C81.2522 23.0942 83.8222 21.2642 87.3822 18.7542C90.2822 16.7042 93.8922 14.1442 97.8022 10.8242C99.5222 9.51418 100.922 7.77418 102.402 5.93418C103.292 4.82418 104.212 3.68418 105.232 2.61418C105.412 2.42418 105.602 2.22418 105.782 2.04418C105.932 1.89418 106.142 1.85418 106.332 1.93418C108.112 2.69418 109.882 3.63418 111.592 4.72418C115.262 7.04418 118.342 9.82418 120.252 12.5642C120.402 12.7842 120.362 13.0842 120.152 13.2442C118.522 14.4942 116.472 16.5542 114.092 18.9342L112.722 20.3042C111.732 21.2942 110.692 22.3142 109.602 23.3642C100.682 31.9042 92.5622 37.3742 88.8322 37.3742ZM93.8122 30.5942C93.9722 30.5942 94.1022 30.6342 94.2222 30.7142C94.3622 30.8142 94.4622 31.0142 94.4522 31.1842C94.4322 31.6142 94.0922 31.8142 92.2722 32.8542C91.0522 33.5442 87.8222 35.3942 87.8222 36.0542C88.0222 36.2442 88.3322 36.3642 88.7622 36.3742C91.6122 36.4842 98.8922 32.2342 108.892 22.6542C109.972 21.6142 111.002 20.6042 111.992 19.6142L113.362 18.2442C115.592 16.0142 117.532 14.0642 119.142 12.7642C117.282 10.2542 114.432 7.71418 111.042 5.57418C109.472 4.57418 107.862 3.71418 106.232 2.99418C106.132 3.09418 106.032 3.20418 105.942 3.30418C104.952 4.35418 104.042 5.47418 103.172 6.56418C101.652 8.45418 100.212 10.2442 98.4122 11.6042C94.4922 14.9342 90.8622 17.5042 87.9422 19.5742C84.6222 21.9242 81.9922 23.7842 80.6922 25.5442C81.2822 25.5142 82.4622 25.2242 83.3722 24.9942C86.2122 24.2942 87.9822 23.9342 88.6422 24.7742C88.8022 24.9742 88.8622 25.2142 88.8122 25.4742C88.6322 26.5142 86.6422 27.8142 83.1322 30.0142C82.2122 30.5942 81.2722 31.1842 80.4022 31.7642C77.1922 33.8742 76.8722 34.6042 76.8822 34.8142C76.8822 34.8542 76.9722 34.9142 77.0422 34.9542C77.2322 35.0442 78.1222 35.2042 81.8022 33.2542C84.2522 31.9542 87.1322 30.1542 89.4422 28.7042C93.4722 26.1742 93.9422 25.9342 94.3822 26.1142C94.5522 26.1842 94.6822 26.3542 94.7022 26.5342C94.7422 26.9542 94.7422 26.9542 91.3522 29.1242C88.6722 30.8342 85.0122 33.1742 83.0522 34.8242C82.3022 35.4542 82.0222 35.8042 81.9122 35.9842C82.2122 36.0442 82.8522 35.9942 84.1322 35.4942C85.8422 34.8142 87.9322 33.6142 89.7822 32.5542C92.2522 31.1242 93.2422 30.5942 93.8122 30.5942Z" fill="#135DBB"/>
<path d="M72.3422 62.0442C71.8922 62.0442 71.4022 61.9842 70.8722 61.8442C70.3822 61.7242 70.0022 61.4242 69.7822 60.9742C68.9522 59.2842 70.5722 55.5842 72.2822 51.6642C73.5422 48.7742 74.8522 45.7942 74.7222 44.4342C74.5622 42.7642 73.0622 40.8842 71.6222 39.0642C69.7122 36.6642 67.7422 34.1942 68.3522 31.7342C68.7722 30.0442 70.3422 28.6242 73.1522 27.3842C76.5022 25.9142 78.5522 28.5142 80.5222 31.0242C80.6122 31.1342 80.6422 31.2742 80.6222 31.4142C80.6022 31.5542 80.5222 31.6742 80.4022 31.7542C77.1922 33.8642 76.8722 34.5942 76.8822 34.8042C76.8822 34.8442 76.9722 34.9042 77.0422 34.9442C77.2322 35.0342 78.1222 35.1942 81.8022 33.2442C82.0022 33.1342 82.2622 33.1842 82.4122 33.3542C82.6222 33.5942 82.8422 33.8442 83.0822 34.0842C83.1822 34.1842 83.2322 34.3142 83.2222 34.4542C83.2122 34.5942 83.1522 34.7242 83.0422 34.8142C82.2922 35.4442 82.0122 35.7942 81.9022 35.9742C82.2022 36.0342 82.8422 35.9842 84.1222 35.4842C84.2922 35.4142 84.4922 35.4442 84.6322 35.5642C86.7222 37.3342 89.0522 38.2142 91.7522 38.2442C94.6422 38.2742 95.9722 36.5142 97.1722 34.9742C98.2722 33.5442 99.4222 32.0742 101.452 33.1442C104.902 34.9542 107.782 40.7542 108.462 45.0842C108.882 47.7842 108.502 49.8342 107.342 51.0142C105.122 53.2842 101.682 52.3442 97.7122 51.2642C93.2522 50.0442 88.1822 48.6642 83.3922 51.2942C80.8222 52.6942 79.3522 55.1042 78.0522 57.2342C76.5422 59.7042 75.1222 62.0442 72.3422 62.0442ZM75.0122 27.9742C74.5622 27.9742 74.0722 28.0842 73.5522 28.3142C71.0422 29.4242 69.6522 30.6242 69.3222 31.9842C68.8322 33.9642 70.6522 36.2442 72.4022 38.4542C73.9422 40.3842 75.5322 42.3842 75.7122 44.3442C75.8722 45.9642 74.5722 48.9342 73.1922 52.0742C71.7922 55.2842 70.0422 59.2642 70.6722 60.5442C70.7622 60.7242 70.8922 60.8242 71.1022 60.8842C74.1722 61.6642 75.4322 59.5942 77.1722 56.7342C78.5322 54.4942 80.0722 51.9642 82.8822 50.4342C88.0322 47.6142 93.5322 49.1142 97.9522 50.3142C101.622 51.3142 104.792 52.1842 106.602 50.3342C107.522 49.3942 107.822 47.5942 107.452 45.2542C106.722 40.6442 103.752 35.5042 100.962 34.0442C99.7222 33.3942 99.1022 34.0942 97.9322 35.6042C96.7322 37.1542 95.1022 39.2642 91.7922 39.2642C91.7622 39.2642 91.7422 39.2642 91.7122 39.2642C88.8722 39.2242 86.4022 38.3342 84.1822 36.5342C82.8322 37.0442 81.9022 37.1342 81.2822 36.8442C81.0122 36.7142 80.8522 36.4942 80.8122 36.2142C80.7522 35.7442 81.0922 35.2042 81.9722 34.4142C81.9422 34.3842 81.9222 34.3542 81.8922 34.3242C78.2522 36.2142 77.1322 36.1342 76.5622 35.8442C76.0122 35.5642 75.8722 35.1542 75.8622 34.8742C75.8122 33.9942 76.8122 32.9542 79.3722 31.2342C77.8322 29.2642 76.5822 27.9742 75.0122 27.9742Z" fill="#135DBB"/>
</svg>
