<svg width="207" height="94" viewBox="0 0 207 94" fill="none" xmlns="http://www.w3.org/2000/svg">
<path d="M105.042 59.0692C94.8925 59.0692 84.9924 45.8192 75.6224 19.6792C75.5324 19.4192 75.6625 19.1292 75.9225 19.0392C76.1825 18.9492 76.4725 19.0792 76.5625 19.3392C85.7725 45.0392 95.3625 58.0692 105.042 58.0692C105.062 58.0692 105.073 58.0692 105.093 58.0692C111.503 58.0392 123.093 48.2092 125.733 38.5792C125.753 38.2392 124.822 36.6292 122.172 33.6692C118.742 29.8292 115.252 26.7992 114.542 26.7592C113.962 26.9692 112.023 30.1592 110.603 32.4892C107.553 37.4892 106.212 39.5092 105.132 39.2792C104.852 39.2192 104.492 38.9992 104.382 38.2392C104.122 36.3692 102.542 32.5292 101.012 28.8192C99.6924 25.6092 98.3225 22.2992 97.8125 20.2392C97.5325 19.1292 97.6925 18.0892 97.8525 16.9892C98.0025 15.9392 98.1825 14.7592 98.0325 13.2592C97.7825 10.7092 96.9425 9.45916 96.0425 8.12916L95.7524 7.69916C95.6024 7.46916 95.6624 7.15916 95.8924 7.00916C96.1224 6.85916 96.4325 6.91916 96.5825 7.14916L96.8625 7.57916C97.7825 8.94916 98.7424 10.3792 99.0124 13.1692C99.1724 14.7892 98.9925 16.0392 98.8325 17.1492C98.6725 18.2292 98.5525 19.0892 98.7825 20.0092C99.2725 21.9992 100.622 25.2792 101.932 28.4492C103.552 32.3892 105.092 36.1192 105.372 38.1092C105.382 38.1692 105.392 38.2092 105.402 38.2492C106.232 37.7492 108.333 34.2992 109.743 31.9792C112.293 27.7992 113.502 25.9392 114.382 25.7792C115.972 25.5092 121.703 31.6792 122.353 32.3792C125.473 35.7892 126.932 37.9592 126.692 38.8392C124.112 48.2592 112.613 59.0292 105.093 59.0692C105.083 59.0692 105.062 59.0692 105.042 59.0692Z" fill="#135DBB"/>
<path d="M53.8525 48.6091C52.6125 48.6091 51.6025 48.5691 50.9825 48.4791C50.3325 48.3891 50.0225 48.2591 49.8525 48.0291C45.9825 42.5191 39.9925 22.5791 42.4125 18.8491C44.1825 16.1091 53.7925 13.2691 70.9525 10.4091C83.6425 8.29912 95.9924 6.93912 96.1224 6.91912C96.3924 6.88912 96.6425 7.08912 96.6725 7.35912C96.7025 7.62912 96.5025 7.87912 96.2325 7.90912C82.5925 9.39912 46.5024 14.3691 43.2524 19.3791C41.2324 22.4891 46.7624 41.7791 50.6324 47.3791C52.1624 48.0691 66.2725 47.2091 68.5825 45.9491C68.3225 45.4191 67.2125 44.0991 66.2125 42.9291C63.0025 39.1291 58.6025 33.9191 59.6925 30.5991C60.1825 29.1091 61.9625 29.0791 64.9125 29.0391C68.0925 28.9891 72.9025 28.9191 78.9425 26.9291C79.2025 26.8391 79.4825 26.9891 79.5725 27.2491C79.6625 27.5091 79.5124 27.7891 79.2524 27.8791C73.0724 29.9191 68.1725 29.9991 64.9225 30.0491C62.2825 30.0891 60.8925 30.1491 60.6425 30.9191C59.7325 33.7091 64.2725 39.0791 66.9825 42.2891C69.0325 44.7191 69.6924 45.5491 69.6324 46.1591C69.6124 46.3391 69.5325 46.4991 69.3925 46.6191C67.8025 47.9191 58.9125 48.6091 53.8525 48.6091Z" fill="#135DBB"/>
<path d="M66.9125 59.7992C66.7225 59.7992 66.5326 59.6892 66.4526 59.4992L61.4726 47.8992C61.3626 47.6492 61.4826 47.3492 61.7326 47.2392C61.9826 47.1292 62.2825 47.2492 62.3925 47.4992L67.3725 59.0992C67.4825 59.3492 67.3626 59.6492 67.1126 59.7592C67.0426 59.7792 66.9825 59.7992 66.9125 59.7992Z" fill="#135DBB"/>
<path d="M54.7725 54.8891C54.5625 54.8891 54.3725 54.7591 54.3025 54.5591L52.0725 48.2591C51.9825 47.9991 52.1124 47.7091 52.3724 47.6191C52.6324 47.5291 52.9225 47.6591 53.0125 47.9191L55.2426 54.2191C55.3326 54.4791 55.2025 54.7691 54.9425 54.8591C54.8825 54.8791 54.8325 54.8891 54.7725 54.8891Z" fill="#135DBB"/>
<path d="M47.4825 80.3691C41.1525 80.3691 35.6625 80.1391 33.8525 79.5591C33.3425 79.3891 32.9424 78.9091 32.6724 78.1391C31.9924 76.1691 32.1925 72.3891 33.4725 70.4591C34.5025 68.9091 35.2225 68.6391 36.9525 67.9891C37.5625 67.7591 38.3124 67.4791 39.2824 67.0591C44.1524 64.9591 48.8525 61.3291 51.8625 57.3591C52.1425 56.9891 52.4124 56.6091 52.6824 56.2491C53.3024 55.3991 53.8824 54.5891 54.4324 54.0491C54.6524 53.8291 55.3424 53.1491 56.1324 53.3791C56.8324 53.5891 57.0125 54.2891 57.2125 55.0991C57.3225 55.5591 57.4524 56.0791 57.6924 56.6391C58.9124 59.4991 62.3925 61.8991 64.4625 61.3191C65.2625 61.0891 65.8925 60.3891 66.4625 59.1091C66.7225 58.5091 66.9424 57.8591 67.1424 57.2791C67.6224 55.8491 68.0024 54.7191 68.9224 54.7691C70.0224 54.8191 70.3424 56.4591 70.9324 59.4291C71.2024 60.8091 71.5125 62.3791 71.9525 64.0791C75.6325 78.2391 73.4924 78.8991 72.7824 79.1191C70.6924 79.7491 57.9525 80.3691 47.4825 80.3691ZM55.8024 54.3191C55.7124 54.3191 55.5124 54.3791 55.1224 54.7491C54.6324 55.2291 54.0725 55.9991 53.4825 56.8191C53.2125 57.1991 52.9324 57.5791 52.6524 57.9491C49.5424 62.0591 44.6824 65.7991 39.6624 67.9691C38.6824 68.3891 37.9124 68.6791 37.2924 68.9191C35.6424 69.5391 35.1424 69.7291 34.2924 71.0091C33.2124 72.6391 33.0125 76.1091 33.6025 77.8091C33.7525 78.2491 33.9624 78.5491 34.1524 78.6091C38.4424 80.0091 68.6125 79.3491 72.4625 78.1491C72.5425 78.1291 74.3625 77.3991 70.9625 64.3091C70.5125 62.5791 70.2024 60.9991 69.9324 59.5991C69.6124 57.9591 69.2125 55.9291 68.8425 55.7391C68.6525 55.8491 68.3024 56.8891 68.0724 57.5791C67.8724 58.1791 67.6425 58.8591 67.3625 59.4991C66.9225 60.4891 66.1725 61.8591 64.7125 62.2691C62.1425 62.9891 58.1924 60.3991 56.7524 57.0191C56.4824 56.3891 56.3325 55.7991 56.2225 55.3191C56.1025 54.8491 55.9825 54.3691 55.8325 54.3191C55.8325 54.3191 55.8224 54.3191 55.8024 54.3191Z" fill="#135DBB"/>
<path d="M42.9525 76.3391C41.3925 76.3391 39.7725 76.2091 38.0325 75.8891C36.2225 75.5591 34.4225 75.0691 32.7025 74.4191C32.4425 74.3191 32.3125 74.0291 32.4125 73.7791C32.5125 73.5191 32.8025 73.3891 33.0525 73.4891C34.7225 74.1191 36.4625 74.5991 38.2125 74.9191C43.7125 75.9191 47.8125 75.0491 53.0025 73.9491C56.6025 73.1891 60.6726 72.3291 65.9926 71.9491C68.4126 71.7791 70.7826 71.7291 73.2226 71.7891C73.5026 71.7991 73.7125 72.0291 73.7125 72.2991C73.7025 72.5691 73.4825 72.7891 73.2125 72.7891H73.2025C70.7825 72.7291 68.4525 72.7791 66.0625 72.9491C60.8225 73.3191 56.7725 74.1791 53.2125 74.9291C49.6725 75.6591 46.4825 76.3391 42.9525 76.3391Z" fill="#135DBB"/>
<path d="M114.913 26.8492C114.823 26.8492 114.722 26.8192 114.632 26.7692C114.402 26.6192 114.343 26.3092 114.493 26.0792L118.313 20.3092C118.463 20.0792 118.772 20.0192 119.002 20.1692C119.232 20.3192 119.292 20.6292 119.142 20.8592L115.323 26.6292C115.233 26.7692 115.073 26.8492 114.913 26.8492Z" fill="#135DBB"/>
<path d="M123.102 34.4592C123.042 34.4592 122.992 34.4492 122.932 34.4292C122.672 34.3392 122.532 34.0492 122.632 33.7892L126.032 24.2792C126.122 24.0192 126.412 23.8792 126.672 23.9792C126.932 24.0692 127.072 24.3592 126.972 24.6192L123.572 34.1292C123.502 34.3292 123.312 34.4592 123.102 34.4592Z" fill="#135DBB"/>
<path d="M127.363 30.3191C127.093 30.3191 126.823 30.2591 126.573 30.0691C125.993 29.6191 126.093 28.8991 126.203 28.0791C126.263 27.6091 126.343 27.0791 126.323 26.4691C126.243 23.3591 123.892 19.8491 121.752 19.6291C120.922 19.5391 120.083 19.9591 119.073 20.9491C118.603 21.4091 118.162 21.9391 117.772 22.3991C116.802 23.5491 116.043 24.4591 115.193 24.0791C114.193 23.6291 114.492 21.9791 115.042 18.9991C115.302 17.6091 115.593 16.0391 115.803 14.2991C117.593 -0.220853 119.833 -0.0508527 120.573 0.00914727C124.063 0.279147 153.042 10.7091 156.923 13.9191C157.342 14.2691 157.533 14.8591 157.493 15.6791C157.403 17.7591 155.823 21.1991 153.923 22.5291C152.403 23.5891 151.632 23.5791 149.772 23.5491C149.122 23.5391 148.312 23.5291 147.272 23.5591C141.972 23.7191 136.262 25.3591 132.002 27.9491C131.612 28.1891 131.213 28.4391 130.833 28.6891C129.953 29.2591 129.112 29.7891 128.402 30.0891C128.212 30.1491 127.803 30.3191 127.363 30.3191ZM121.542 18.6091C121.642 18.6091 121.753 18.6091 121.853 18.6291C124.513 18.8991 127.223 22.7691 127.323 26.4391C127.343 27.1291 127.263 27.7291 127.193 28.2091C127.133 28.6891 127.063 29.1791 127.183 29.2791C127.223 29.3091 127.402 29.3991 128.012 29.1491C128.642 28.8891 129.442 28.3791 130.292 27.8291C130.682 27.5791 131.083 27.3191 131.483 27.0791C135.893 24.4091 141.783 22.7091 147.243 22.5491C148.313 22.5191 149.132 22.5291 149.792 22.5391C151.562 22.5691 152.093 22.5791 153.353 21.6991C154.953 20.5891 156.423 17.4291 156.493 15.6291C156.513 15.1591 156.432 14.8091 156.282 14.6791C152.802 11.7991 124.513 1.30915 120.493 0.989147C120.403 0.989147 118.452 0.949148 116.792 14.4091C116.572 16.1791 116.282 17.7691 116.022 19.1691C115.722 20.8091 115.343 22.8591 115.613 23.1691C115.833 23.1391 116.532 22.2991 117.002 21.7491C117.412 21.2691 117.872 20.7191 118.372 20.2291C119.092 19.5191 120.182 18.6091 121.542 18.6091Z" fill="#135DBB"/>
<path d="M155.773 19.9992C155.653 19.9992 155.533 19.9592 155.433 19.8692C154.113 18.6692 152.673 17.5792 151.163 16.6392C146.423 13.6892 142.283 12.9892 137.053 12.0892C133.433 11.4692 129.323 10.7692 124.243 9.16919C121.933 8.43919 119.713 7.61919 117.463 6.65919C117.213 6.54919 117.093 6.25919 117.203 5.99919C117.313 5.74919 117.603 5.62919 117.863 5.73919C120.093 6.68919 122.283 7.49919 124.563 8.21919C129.573 9.79919 133.643 10.4992 137.243 11.1092C142.373 11.9892 146.793 12.7392 151.703 15.7892C153.263 16.7592 154.752 17.8792 156.122 19.1192C156.322 19.3092 156.343 19.6192 156.153 19.8292C156.043 19.9392 155.903 19.9992 155.773 19.9992Z" fill="#135DBB"/>
<path d="M156.463 18.4591C156.323 18.4591 156.193 18.3991 156.093 18.2991C154.733 16.7991 153.223 15.4491 151.613 14.2991C147.253 11.1891 143.202 10.2891 138.073 9.13912C136.033 8.67912 133.712 8.15912 131.152 7.44912C126.932 6.26912 122.713 4.73912 118.593 2.88912C118.343 2.77912 118.233 2.47912 118.343 2.22912C118.453 1.97912 118.752 1.86912 119.002 1.97912C123.072 3.79912 127.252 5.31912 131.422 6.48912C133.952 7.19912 136.252 7.70912 138.292 8.16912C143.532 9.33912 147.672 10.2691 152.192 13.4891C153.862 14.6791 155.423 16.0691 156.833 17.6291C157.013 17.8391 157.002 18.1491 156.792 18.3391C156.702 18.4091 156.583 18.4591 156.463 18.4591Z" fill="#135DBB"/>
<path d="M44.9725 78.7891C42.4825 78.7891 40.6425 78.6591 39.0525 78.4891C37.0125 78.2691 34.9725 77.9491 32.8225 77.5291C32.5525 77.4791 32.3725 77.2091 32.4325 76.9391C32.4825 76.6691 32.7424 76.4891 33.0224 76.5491C35.1424 76.9691 37.1524 77.2791 39.1724 77.4891C42.8224 77.8791 47.7924 78.0691 59.3724 76.8591C64.2824 76.3391 68.8925 75.7491 73.4525 75.0491C73.7325 75.0091 73.9824 75.1991 74.0224 75.4691C74.0624 75.7391 73.8725 75.9991 73.6025 76.0391C69.0225 76.7491 64.3925 77.3391 59.4725 77.8591C52.8025 78.5491 48.2925 78.7891 44.9725 78.7891Z" fill="#135DBB"/>
<path d="M51.4725 59.1291H51.4625C51.3425 59.1291 51.2524 59.1092 51.1224 58.9992C42.5424 54.5792 42.3325 52.5992 42.2625 51.9492C42.2225 51.5392 42.3025 50.9292 42.9425 50.4092C43.2225 50.1792 43.5725 50.0892 43.9525 50.1392C45.3525 50.3092 47.2525 52.3992 49.2125 54.9092C48.1225 52.7792 47.3025 51.5791 46.7825 50.8291C46.0925 49.8291 45.7125 49.2692 46.7225 48.5192C47.0625 48.2592 47.7925 47.9791 48.7625 49.0091C50.5225 50.8691 53.0424 57.5392 51.8724 58.9492C51.8624 58.9692 51.8425 58.9792 51.8225 58.9992C51.7725 59.0392 51.7225 59.0791 51.6625 59.0991C51.6125 59.1091 51.5425 59.1291 51.4725 59.1291ZM43.7625 51.1191C43.6625 51.1191 43.6125 51.1492 43.5725 51.1792C43.2525 51.4392 43.2325 51.6691 43.2525 51.8491C43.3125 52.4191 44.0925 53.9891 49.5925 57.0591C48.0825 55.0291 45.2125 51.2991 43.8325 51.1291C43.8125 51.1191 43.7825 51.1191 43.7625 51.1191ZM47.4225 49.2692C47.3825 49.2692 47.3525 49.2792 47.3225 49.2992C47.1425 49.4292 47.1025 49.4892 47.0925 49.4992C47.1225 49.5392 47.3725 49.8992 47.6025 50.2492C48.2625 51.2092 49.4025 52.8592 50.9325 56.1592C50.4025 53.9692 49.1525 50.7791 47.9425 49.5991C47.7825 49.4391 47.5825 49.2692 47.4225 49.2692Z" fill="#135DBB"/>
<path d="M137.243 37.6691C136.003 37.6691 134.822 36.8691 133.872 35.3691C132.092 32.5591 131.493 28.1391 132.673 26.4291C132.683 26.4191 132.683 26.4091 132.693 26.3991C132.733 26.3391 132.793 26.2991 132.853 26.2591C132.913 26.2291 132.983 26.2091 133.053 26.1991C133.173 26.1891 133.262 26.1991 133.392 26.2791C142.472 29.5591 142.933 31.4891 143.093 32.1291C143.193 32.5391 143.183 33.1491 142.613 33.7491C142.363 34.0091 142.032 34.1491 141.642 34.1491H141.632C140.262 34.1491 138.213 32.4491 136.043 30.3191C138.513 34.2491 139.172 35.9491 138.762 36.8791C138.642 37.1591 138.363 37.5091 137.723 37.6091C137.563 37.6491 137.403 37.6691 137.243 37.6691ZM133.183 27.7591C132.803 29.4491 133.333 32.6491 134.713 34.8191C135.313 35.7591 136.293 36.8391 137.553 36.6291C137.793 36.5891 137.833 36.5091 137.843 36.4791C138.263 35.5191 135.133 30.6791 133.183 27.7591ZM135.162 28.0191C136.922 29.8291 140.242 33.1491 141.632 33.1491C141.782 33.1491 141.842 33.0991 141.882 33.0591C142.162 32.7591 142.153 32.5291 142.113 32.3591C141.983 31.8091 141.012 30.3491 135.162 28.0191Z" fill="#135DBB"/>
<path d="M124.562 36.2291C124.362 36.2291 124.172 36.1091 124.092 35.8991C123.732 34.9391 123.402 33.9491 123.072 32.8691C122.992 32.6091 123.142 32.3291 123.402 32.2491C123.662 32.1691 123.942 32.3191 124.022 32.5791C124.352 33.6391 124.682 34.6091 125.032 35.5591C125.132 35.8191 124.992 36.1091 124.742 36.1991C124.672 36.2191 124.622 36.2291 124.562 36.2291Z" fill="#135DBB"/>
<path d="M54.7625 93.3392C54.2425 93.3392 53.7326 93.3292 53.2026 93.3192C35.4826 92.8192 17.6325 83.5992 0.1425 65.9292C-0.0475 65.7292 -0.0475 65.4192 0.1425 65.2192C0.3425 65.0292 0.652583 65.0292 0.852583 65.2192C18.1626 82.7092 35.7826 91.8192 53.2326 92.3192C67.4226 92.7292 77.8625 87.4292 88.9025 81.8292C99.6425 76.3792 110.753 70.7392 126.703 69.1292C144.753 67.3092 163.503 71.3192 182.413 81.0592C182.663 81.1892 182.752 81.4892 182.632 81.7292C182.502 81.9792 182.203 82.0692 181.963 81.9492C163.223 72.2992 144.673 68.3192 126.813 70.1192C111.043 71.7092 100.023 77.3092 89.3626 82.7192C78.6026 88.1692 68.4325 93.3392 54.7625 93.3392Z" fill="#135DBB"/>
<path d="M205.752 64.9291C205.672 64.9291 205.592 64.9091 205.522 64.8691C193.042 58.4491 180.563 54.5091 168.423 53.1591C167.733 53.0791 167.023 53.0091 166.313 52.9591C166.033 52.9391 165.833 52.6991 165.853 52.4191C165.873 52.1391 166.122 51.9391 166.392 51.9591C167.112 52.0091 167.833 52.0891 168.533 52.1691C180.803 53.5291 193.403 57.5091 205.983 63.9891C206.233 64.1191 206.323 64.4191 206.203 64.6591C206.113 64.8291 205.932 64.9291 205.752 64.9291Z" fill="#135DBB"/>
<path d="M78.3326 76.2692C77.8226 76.2692 77.3025 76.2592 76.7825 76.2492C75.5325 76.2092 74.4826 76.1492 73.4726 76.0492C73.1926 76.0192 72.9925 75.7792 73.0225 75.5092C73.0525 75.2292 73.3125 75.0292 73.5625 75.0592C74.5525 75.1492 75.5825 75.2092 76.8025 75.2492C91.0025 75.6592 101.433 70.3592 112.473 64.7592C123.213 59.3092 134.323 53.6692 150.273 52.0592C151.553 51.9292 152.913 51.8192 154.333 51.7592C155.893 51.6892 157.193 51.6492 158.423 51.6492C158.703 51.6492 158.923 51.8692 158.923 52.1492C158.923 52.4292 158.703 52.6492 158.423 52.6492C157.213 52.6492 155.932 52.6792 154.382 52.7592C152.992 52.8292 151.642 52.9292 150.382 53.0592C134.612 54.6592 123.593 60.2492 112.933 65.6592C102.183 71.0992 92.0026 76.2692 78.3326 76.2692Z" fill="#135DBB"/>
<path d="M44.1725 65.4792C44.0825 65.4792 44.0025 65.4592 43.9225 65.4092C42.8625 64.7892 41.9026 64.2392 40.9826 63.7292C36.9826 61.4792 33.8225 59.7092 28.0125 53.8492C27.8225 53.6492 27.8225 53.3392 28.0125 53.1392C28.2125 52.9492 28.5226 52.9492 28.7226 53.1392C34.4326 58.8992 37.5326 60.6392 41.4726 62.8492C42.4026 63.3692 43.3725 63.9192 44.4325 64.5492C44.6725 64.6892 44.7526 64.9992 44.6126 65.2392C44.5126 65.3992 44.3425 65.4792 44.1725 65.4792Z" fill="#135DBB"/>
<path d="M158.632 61.1791C158.592 61.1791 158.542 61.1691 158.492 61.1591C158.232 61.0891 158.082 60.8291 158.142 60.5691C160.052 52.2191 160.082 52.0591 147.562 48.2091C147.302 48.1291 147.152 47.8591 147.232 47.5991C147.302 47.3391 147.572 47.1791 147.842 47.2491C160.532 50.5091 160.582 50.3491 163.322 42.2391C163.402 41.9891 163.672 41.8491 163.932 41.9191C164.192 41.9891 164.342 42.2491 164.282 42.5091C162.372 50.8591 162.342 51.0191 174.862 54.8691C175.122 54.9491 175.272 55.2191 175.192 55.4791C175.112 55.7391 174.842 55.8991 174.582 55.8291C161.892 52.5691 161.842 52.7191 159.102 60.8391C159.032 61.0491 158.842 61.1791 158.632 61.1791ZM156.162 50.1191C159.282 51.5391 160.212 52.9691 160.032 55.7091C161.312 53.2691 162.852 52.5391 166.252 52.9591C163.132 51.5391 162.202 50.1091 162.382 47.3691C161.102 49.7991 159.572 50.5391 156.162 50.1191Z" fill="#135DBB"/>
<path d="M17.0324 38.5292C14.3324 38.5292 11.2124 35.9192 9.6424 33.2392C8.4824 31.2492 8.29238 29.4492 9.12238 28.3092C10.2124 26.7992 11.7025 26.2592 13.4525 26.7492C14.8825 27.1492 16.2825 28.2192 17.2125 29.2992C17.2125 29.2892 17.2225 29.2792 17.2225 29.2692C18.1625 26.8392 20.0725 25.3792 22.3425 25.3392C23.6725 25.3292 24.4424 26.2692 24.5524 27.9392C24.7824 31.6892 21.6425 38.0492 17.4725 38.5092C17.3325 38.5192 17.1824 38.5292 17.0324 38.5292ZM12.2724 27.5692C11.3524 27.5692 10.5725 28.0092 9.94245 28.8892C9.36245 29.6892 9.5824 31.1292 10.5124 32.7292C11.9724 35.2292 15.0025 37.7692 17.3625 37.5092C20.8425 37.1292 23.7624 31.2992 23.5624 27.9992C23.4924 26.8892 23.1024 26.3292 22.3924 26.3292C22.3824 26.3292 22.3824 26.3292 22.3724 26.3292C20.4924 26.3592 19.3625 27.5092 18.7425 28.4792C18.3425 29.1092 18.0925 29.7492 17.9525 30.2792C18.2025 30.6892 18.3424 31.0692 18.3724 31.3592C18.4024 31.7692 18.2324 32.1092 17.9024 32.2592C17.6324 32.3892 17.3324 32.3492 17.1224 32.1492C16.7724 31.8192 16.7724 31.1392 16.8924 30.4692C16.2624 29.5992 15.0924 28.4292 13.6824 27.8692C13.1824 27.6792 12.7124 27.5692 12.2724 27.5692Z" fill="#135DBB"/>
</svg>
